<svg width="118" height="86" xmlns="http://www.w3.org/2000/svg" xmlns:xlink="http://www.w3.org/1999/xlink">
	<defs>
		<path d="M68.657 6.343L63 12H7a4 4 0 0 0-4 4v62a4 4 0 0 0 4 4h104a4 4 0 0 0 4-4V8a4 4 0 0 0-4-4H74.314a8 8 0 0 0-5.657 2.343z" id="b"/>
		<filter x="-5.5%" y="-5.9%" width="111.1%" height="115.9%" filterUnits="objectBoundingBox" id="a">
			<feOffset dy=".3" in="SourceAlpha" result="shadowOffsetOuter1"/>
			<feGaussianBlur stdDeviation=".45" in="shadowOffsetOuter1" result="shadowBlurOuter1"/>
			<feColorMatrix values="0 0 0 0 0 0 0 0 0 0 0 0 0 0 0 0 0 0 0.108000002 0" in="shadowBlurOuter1" result="shadowMatrixOuter1"/>
			<feOffset dy="1.6" in="SourceAlpha" result="shadowOffsetOuter2"/>
			<feGaussianBlur stdDeviation="1.8" in="shadowOffsetOuter2" result="shadowBlurOuter2"/>
			<feColorMatrix values="0 0 0 0 0 0 0 0 0 0 0 0 0 0 0 0 0 0 0.131999998 0" in="shadowBlurOuter2" result="shadowMatrixOuter2"/>
			<feMerge>
				<feMergeNode in="shadowMatrixOuter1"/>
				<feMergeNode in="shadowMatrixOuter2"/>
			</feMerge>
		</filter>
	</defs>
	<g transform="matrix(-1 0 0 1 118 0)" fill="none" fill-rule="evenodd">
		<use fill="#000" filter="url(#a)" xlink:href="#b"/>
		<use fill="#FFB900" xlink:href="#b"/>
	</g>
	<g transform="translate(40,30), scale(2,2)">
	<path fill-rule="evenodd" d="M8 0a4 4 0 0 1 4 4v2.05a2.5 2.5 0 0 1 2 2.45v5a2.5 2.5 0 0 1-2.5 2.5h-7A2.5 2.5 0 0 1 2 13.5v-5a2.5 2.5 0 0 1 2-2.45V4a4 4 0 0 1 4-4m0 1a3 3 0 0 0-3 3v2h6V4a3 3 0 0 0-3-3"/>
	</g>
</svg>